<svg width="248" height="84" viewBox="0 0 248 84" fill="none" xmlns="http://www.w3.org/2000/svg">
<path d="M21.396 83.912C17.9 83.912 15.164 82.962 13.188 81.062C11.212 79.124 10.224 76.027 10.224 71.771V31.244H1.44598C0.723976 31.244 0.362976 30.959 0.362976 30.389V29.363L10.224 28.964L11.079 7.304C11.117 7.076 11.212 6.86699 11.364 6.67699C11.516 6.449 11.725 6.335 11.991 6.335H13.245V28.964H31.827V31.244H13.245V71.657C13.245 73.405 13.473 74.906 13.929 76.16C14.385 77.376 14.993 78.383 15.753 79.181C16.513 79.979 17.406 80.568 18.432 80.948C19.496 81.29 20.636 81.461 21.852 81.461C23.334 81.461 24.626 81.233 25.728 80.777C26.868 80.321 27.837 79.827 28.635 79.295C29.433 78.763 30.079 78.269 30.573 77.813C31.067 77.357 31.428 77.129 31.656 77.129C31.846 77.129 32.055 77.243 32.283 77.471L33.024 78.554C32.378 79.352 31.618 80.074 30.744 80.72C29.908 81.366 28.977 81.936 27.951 82.43C26.925 82.886 25.861 83.247 24.759 83.513C23.657 83.779 22.536 83.912 21.396 83.912Z" fill="#E9D9D8"/>
<path d="M61.9239 25.886C65.9139 25.886 69.4479 26.589 72.5259 27.995C75.6419 29.363 78.2639 31.32 80.3919 33.866C82.5199 36.374 84.1349 39.414 85.2369 42.986C86.3389 46.558 86.8899 50.529 86.8899 54.899C86.8899 59.269 86.3389 63.24 85.2369 66.812C84.1349 70.346 82.5199 73.367 80.3919 75.875C78.2639 78.383 75.6419 80.321 72.5259 81.689C69.4479 83.019 65.9139 83.684 61.9239 83.684C57.9339 83.684 54.3809 83.019 51.2649 81.689C48.1869 80.321 45.5839 78.383 43.4559 75.875C41.3279 73.367 39.7129 70.346 38.6109 66.812C37.5089 63.24 36.9579 59.269 36.9579 54.899C36.9579 50.529 37.5089 46.558 38.6109 42.986C39.7129 39.414 41.3279 36.374 43.4559 33.866C45.5839 31.32 48.1869 29.363 51.2649 27.995C54.3809 26.589 57.9339 25.886 61.9239 25.886ZM61.9239 81.29C65.5719 81.29 68.7639 80.663 71.4999 79.409C74.2359 78.155 76.5159 76.369 78.3399 74.051C80.2019 71.733 81.5889 68.959 82.5009 65.729C83.4129 62.499 83.8689 58.889 83.8689 54.899C83.8689 50.909 83.4129 47.28 82.5009 44.012C81.5889 40.744 80.2019 37.951 78.3399 35.633C76.5159 33.277 74.2359 31.472 71.4999 30.218C68.7639 28.926 65.5719 28.28 61.9239 28.28C58.2759 28.28 55.0839 28.926 52.3479 30.218C49.6119 31.472 47.3129 33.277 45.4509 35.633C43.6269 37.951 42.2589 40.744 41.3469 44.012C40.4349 47.28 39.9789 50.909 39.9789 54.899C39.9789 58.889 40.4349 62.499 41.3469 65.729C42.2589 68.959 43.6269 71.733 45.4509 74.051C47.3129 76.369 49.6119 78.155 52.3479 79.409C55.0839 80.663 58.2759 81.29 61.9239 81.29Z" fill="#E9D9D8"/>
<path d="M138.214 38.141C135.858 34.531 133.255 31.985 130.405 30.503C127.555 28.983 124.287 28.223 120.601 28.223C116.915 28.223 113.704 28.907 110.968 30.275C108.232 31.605 105.952 33.467 104.128 35.861C102.304 38.255 100.936 41.086 100.024 44.354C99.1119 47.622 98.6559 51.175 98.6559 55.013C98.6559 63.943 100.328 70.555 103.672 74.849C107.054 79.143 111.975 81.29 118.435 81.29C122.387 81.29 126.035 80.207 129.379 78.041C132.761 75.875 135.706 72.873 138.214 69.035V38.141ZM141.235 0.577995V83H139.867C139.107 83 138.708 82.62 138.67 81.86L138.328 71.828C135.82 75.514 132.818 78.421 129.322 80.549C125.864 82.639 122.026 83.684 117.808 83.684C110.664 83.684 105.173 81.328 101.335 76.616C97.4969 71.904 95.5779 64.703 95.5779 55.013C95.5779 50.909 96.0909 47.09 97.1169 43.556C98.1809 40.022 99.7389 36.944 101.791 34.322C103.881 31.7 106.446 29.648 109.486 28.166C112.564 26.646 116.117 25.886 120.145 25.886C124.173 25.886 127.65 26.665 130.576 28.223C133.54 29.743 136.086 32.042 138.214 35.12V0.577995H141.235Z" fill="#E9D9D8"/>
<path d="M178.271 25.886C182.261 25.886 185.795 26.589 188.873 27.995C191.989 29.363 194.611 31.32 196.739 33.866C198.867 36.374 200.482 39.414 201.584 42.986C202.686 46.558 203.237 50.529 203.237 54.899C203.237 59.269 202.686 63.24 201.584 66.812C200.482 70.346 198.867 73.367 196.739 75.875C194.611 78.383 191.989 80.321 188.873 81.689C185.795 83.019 182.261 83.684 178.271 83.684C174.281 83.684 170.728 83.019 167.612 81.689C164.534 80.321 161.931 78.383 159.803 75.875C157.675 73.367 156.06 70.346 154.958 66.812C153.856 63.24 153.305 59.269 153.305 54.899C153.305 50.529 153.856 46.558 154.958 42.986C156.06 39.414 157.675 36.374 159.803 33.866C161.931 31.32 164.534 29.363 167.612 27.995C170.728 26.589 174.281 25.886 178.271 25.886ZM178.271 81.29C181.919 81.29 185.111 80.663 187.847 79.409C190.583 78.155 192.863 76.369 194.687 74.051C196.549 71.733 197.936 68.959 198.848 65.729C199.76 62.499 200.216 58.889 200.216 54.899C200.216 50.909 199.76 47.28 198.848 44.012C197.936 40.744 196.549 37.951 194.687 35.633C192.863 33.277 190.583 31.472 187.847 30.218C185.111 28.926 181.919 28.28 178.271 28.28C174.623 28.28 171.431 28.926 168.695 30.218C165.959 31.472 163.66 33.277 161.798 35.633C159.974 37.951 158.606 40.744 157.694 44.012C156.782 47.28 156.326 50.909 156.326 54.899C156.326 58.889 156.782 62.499 157.694 65.729C158.606 68.959 159.974 71.733 161.798 74.051C163.66 76.369 165.959 78.155 168.695 79.409C171.431 80.663 174.623 81.29 178.271 81.29Z" fill="#E9D9D8"/>
<path d="M245.213 32.555C245.023 32.897 244.738 33.068 244.358 33.068C244.016 33.068 243.522 32.821 242.876 32.327C242.268 31.795 241.413 31.244 240.311 30.674C239.209 30.066 237.822 29.515 236.15 29.021C234.516 28.489 232.483 28.223 230.051 28.223C227.809 28.223 225.757 28.565 223.895 29.249C222.071 29.895 220.494 30.769 219.164 31.871C217.834 32.973 216.808 34.265 216.086 35.747C215.364 37.229 215.003 38.768 215.003 40.364C215.003 42.264 215.459 43.86 216.371 45.152C217.321 46.444 218.556 47.546 220.076 48.458C221.596 49.332 223.325 50.092 225.263 50.738C227.201 51.346 229.177 51.973 231.191 52.619C233.205 53.227 235.181 53.892 237.119 54.614C239.057 55.336 240.786 56.229 242.306 57.293C243.826 58.357 245.042 59.668 245.954 61.226C246.904 62.784 247.379 64.703 247.379 66.983C247.379 69.339 246.961 71.543 246.125 73.595C245.289 75.647 244.054 77.452 242.42 79.01C240.824 80.53 238.848 81.727 236.492 82.601C234.174 83.475 231.514 83.912 228.512 83.912C226.498 83.912 224.674 83.741 223.04 83.399C221.406 83.095 219.886 82.658 218.48 82.088C217.074 81.48 215.763 80.758 214.547 79.922C213.331 79.086 212.153 78.155 211.013 77.129L211.754 76.16C211.906 75.97 212.039 75.837 212.153 75.761C212.305 75.647 212.533 75.59 212.837 75.59C213.217 75.59 213.749 75.913 214.433 76.559C215.155 77.167 216.105 77.851 217.283 78.611C218.499 79.371 220.019 80.074 221.843 80.72C223.667 81.328 225.909 81.632 228.569 81.632C231.191 81.632 233.49 81.271 235.466 80.549C237.48 79.789 239.152 78.763 240.482 77.471C241.85 76.179 242.876 74.678 243.56 72.968C244.244 71.22 244.586 69.377 244.586 67.439C244.586 65.387 244.111 63.677 243.161 62.309C242.249 60.941 241.033 59.801 239.513 58.889C237.993 57.939 236.264 57.141 234.326 56.495C232.388 55.849 230.412 55.222 228.398 54.614C226.384 54.006 224.408 53.36 222.47 52.676C220.532 51.954 218.803 51.08 217.283 50.054C215.763 48.99 214.528 47.698 213.578 46.178C212.666 44.658 212.21 42.758 212.21 40.478C212.21 38.578 212.628 36.754 213.464 35.006C214.338 33.22 215.554 31.662 217.112 30.332C218.67 28.964 220.532 27.881 222.698 27.083C224.902 26.285 227.353 25.886 230.051 25.886C233.319 25.886 236.207 26.342 238.715 27.254C241.223 28.166 243.598 29.61 245.84 31.586L245.213 32.555Z" fill="#E9D9D8"/>
</svg>
