<svg width="28" height="28" viewBox="0 0 28 28" fill="none" xmlns="http://www.w3.org/2000/svg">
<path d="M24.0114 4.83029C23.9939 4.83467 23.9764 4.84123 23.9589 4.84779C23.8123 4.88499 23.6855 4.97905 23.6089 5.11031L12.1632 22.8564L4.28774 15.7509C4.14992 15.5759 3.92022 15.4994 3.70364 15.5562C3.48707 15.6131 3.32737 15.7947 3.29456 16.0156C3.26174 16.2366 3.36237 16.4554 3.5527 16.5735L11.9007 24.1339C12.0232 24.2411 12.1873 24.2893 12.3492 24.2652C12.511 24.2411 12.6532 24.1493 12.7407 24.0114L24.5539 5.70534C24.683 5.52159 24.6896 5.27876 24.5714 5.08843C24.4533 4.89811 24.2324 4.79748 24.0114 4.83029Z" fill="#77C0AF"/>
</svg>
